<?xml version="1.0" encoding="UTF-8" standalone="no"?>
<!-- Generator: Adobe Illustrator 16.0.0, SVG Export Plug-In . SVG Version: 6.00 Build 0)  -->

<svg
   xmlns:dc="http://purl.org/dc/elements/1.1/"
   xmlns:cc="http://creativecommons.org/ns#"
   xmlns:rdf="http://www.w3.org/1999/02/22-rdf-syntax-ns#"
   xmlns:svg="http://www.w3.org/2000/svg"
   xmlns="http://www.w3.org/2000/svg"
   xmlns:sodipodi="http://sodipodi.sourceforge.net/DTD/sodipodi-0.dtd"
   xmlns:inkscape="http://www.inkscape.org/namespaces/inkscape"
   version="1.1"
   id="Capa_1"
   x="0px"
   y="0px"
   width="47px"
   height="47px"
   viewBox="0 0 47 47"
   style="enable-background:new 0 0 47 47;"
   xml:space="preserve"
   sodipodi:docname="icon.svg"
   inkscape:version="0.92.3 (2405546, 2018-03-11)"><metadata
   id="metadata54"><rdf:RDF><cc:Work
       rdf:about=""><dc:format>image/svg+xml</dc:format><dc:type
         rdf:resource="http://purl.org/dc/dcmitype/StillImage" /><dc:title></dc:title></cc:Work></rdf:RDF></metadata><defs
   id="defs52" /><sodipodi:namedview
   pagecolor="#ffffff"
   bordercolor="#666666"
   borderopacity="1"
   objecttolerance="10"
   gridtolerance="10"
   guidetolerance="10"
   inkscape:pageopacity="0"
   inkscape:pageshadow="2"
   inkscape:window-width="1680"
   inkscape:window-height="997"
   id="namedview50"
   showgrid="false"
   inkscape:zoom="5.0212766"
   inkscape:cx="-12.646186"
   inkscape:cy="23.5"
   inkscape:window-x="0"
   inkscape:window-y="25"
   inkscape:window-maximized="1"
   inkscape:current-layer="Capa_1" />
<g
   id="g17"
   style="fill:#7fc85b;fill-opacity:1">
	<g
   id="Layer_1_110_"
   style="fill:#7fc85b;fill-opacity:1">
		<g
   id="g14"
   style="fill:#7fc85b;fill-opacity:1">
			<path
   d="M17.567,15.938l-2.859-2.702c0.333-0.605,0.539-1.29,0.539-2.029c0-2.342-1.897-4.239-4.24-4.239     c-2.343,0-4.243,1.896-4.243,4.239c0,2.343,1.9,4.241,4.243,4.241c0.826,0,1.59-0.246,2.242-0.654l2.855,2.699     C16.536,16.922,17.023,16.399,17.567,15.938z"
   id="path2"
   style="fill:#7fc85b;fill-opacity:1" />
			<path
   d="M29.66,15.6l3.799-6.393c0.374,0.107,0.762,0.184,1.169,0.184c2.347,0,4.244-1.898,4.244-4.241     c0-2.342-1.897-4.239-4.244-4.239c-2.343,0-4.239,1.896-4.239,4.239c0,1.163,0.469,2.214,1.227,2.981l-3.787,6.375     C28.48,14.801,29.094,15.169,29.66,15.6z"
   id="path4"
   style="fill:#7fc85b;fill-opacity:1" />
			<path
   d="M42.762,20.952c-1.824,0-3.369,1.159-3.968,2.775l-5.278-0.521c0,0.04,0.006,0.078,0.006,0.117     c0,0.688-0.076,1.36-0.213,2.009l5.276,0.521c0.319,2.024,2.062,3.576,4.177,3.576c2.342,0,4.238-1.896,4.238-4.238     C47,22.85,45.104,20.952,42.762,20.952z"
   id="path6"
   style="fill:#7fc85b;fill-opacity:1" />
			<path
   d="M28.197,37.624l-1.18-5.156c-0.666,0.232-1.359,0.398-2.082,0.481l1.182,5.157c-1.355,0.709-2.29,2.11-2.29,3.746     c0,2.342,1.896,4.237,4.243,4.237c2.342,0,4.238-1.896,4.238-4.237C32.311,39.553,30.479,37.692,28.197,37.624z"
   id="path8"
   style="fill:#7fc85b;fill-opacity:1" />
			<path
   d="M14.357,25.37l-6.57,2.201c-0.758-1.158-2.063-1.926-3.548-1.926C1.896,25.645,0,27.542,0,29.884     c0,2.345,1.896,4.242,4.239,4.242c2.341,0,4.242-1.897,4.242-4.242c0-0.098-0.021-0.188-0.029-0.284l6.591-2.207     C14.746,26.752,14.51,26.077,14.357,25.37z"
   id="path10"
   style="fill:#7fc85b;fill-opacity:1" />
			<circle
   cx="23.83"
   cy="23.323"
   r="7.271"
   id="circle12"
   style="fill:#7fc85b;fill-opacity:1" />
		</g>
	</g>
</g>
<g
   id="g19"
   style="fill:#333333">
</g>
<g
   id="g21"
   style="fill:#333333">
</g>
<g
   id="g23"
   style="fill:#333333">
</g>
<g
   id="g25"
   style="fill:#333333">
</g>
<g
   id="g27"
   style="fill:#333333">
</g>
<g
   id="g29"
   style="fill:#333333">
</g>
<g
   id="g31"
   style="fill:#333333">
</g>
<g
   id="g33"
   style="fill:#333333">
</g>
<g
   id="g35"
   style="fill:#333333">
</g>
<g
   id="g37"
   style="fill:#333333">
</g>
<g
   id="g39"
   style="fill:#333333">
</g>
<g
   id="g41"
   style="fill:#333333">
</g>
<g
   id="g43"
   style="fill:#333333">
</g>
<g
   id="g45"
   style="fill:#333333">
</g>
<g
   id="g47"
   style="fill:#333333">
</g>
</svg>