<?xml version="1.0" encoding="UTF-8" standalone="no"?>
<!-- Generator: Adobe Illustrator 16.0.0, SVG Export Plug-In . SVG Version: 6.00 Build 0)  -->

<svg
   xmlns:dc="http://purl.org/dc/elements/1.1/"
   xmlns:cc="http://creativecommons.org/ns#"
   xmlns:rdf="http://www.w3.org/1999/02/22-rdf-syntax-ns#"
   xmlns:svg="http://www.w3.org/2000/svg"
   xmlns="http://www.w3.org/2000/svg"
   xmlns:sodipodi="http://sodipodi.sourceforge.net/DTD/sodipodi-0.dtd"
   xmlns:inkscape="http://www.inkscape.org/namespaces/inkscape"
   version="1.1"
   id="Capa_1"
   x="0px"
   y="0px"
   width="910.288px"
   height="910.287px"
   viewBox="0 0 910.288 910.287"
   style="enable-background:new 0 0 910.288 910.287;"
   xml:space="preserve"
   sodipodi:docname="disabled.svg"
   inkscape:version="0.92.3 (2405546, 2018-03-11)"><metadata
   id="metadata45"><rdf:RDF><cc:Work
       rdf:about=""><dc:format>image/svg+xml</dc:format><dc:type
         rdf:resource="http://purl.org/dc/dcmitype/StillImage" /><dc:title></dc:title></cc:Work></rdf:RDF></metadata><defs
   id="defs43" /><sodipodi:namedview
   pagecolor="#ffffff"
   bordercolor="#666666"
   borderopacity="1"
   objecttolerance="10"
   gridtolerance="10"
   guidetolerance="10"
   inkscape:pageopacity="0"
   inkscape:pageshadow="2"
   inkscape:window-width="1680"
   inkscape:window-height="997"
   id="namedview41"
   showgrid="false"
   inkscape:zoom="0.7332949"
   inkscape:cx="222.40895"
   inkscape:cy="483.7236"
   inkscape:window-x="0"
   inkscape:window-y="25"
   inkscape:window-maximized="1"
   inkscape:current-layer="g6" />
<g
   id="g8">
	<g
   id="g6">
		<path
   d="M873.206,202.06l-1.212-28.51l-28.386-2.915c-109.036-11.198-202.773-51.887-262.21-84.049    c-65.099-35.226-104.56-68.274-104.922-68.579L455.165,0L433.84,17.981c-0.392,0.33-39.853,33.379-104.951,68.604    c-59.437,32.162-153.173,72.851-262.209,84.049l-28.387,2.915l-1.212,28.51c-0.217,5.104-4.777,126.698,42.059,273.937    c27.637,86.887,67.549,164.736,118.627,231.396c64.139,83.701,145.948,149.68,243.155,196.102l14.221,6.793l14.221-6.793    c97.207-46.422,179.017-112.398,243.155-196.102c51.079-66.658,90.991-144.51,118.628-231.395    C877.982,328.759,873.423,207.165,873.206,202.06z M455.143,836.93c-81.095-41.209-149.731-97.887-204.194-168.646    c-46.393-60.275-82.812-130.998-108.248-210.201c-31.088-96.808-38.06-183.144-39.471-225.538    c43.735-6.494,87.949-17.421,131.833-32.597c42.9-14.836,85.598-33.752,126.907-56.221c41.915-22.798,73.81-44.573,93.172-58.812    c19.362,14.238,51.258,36.014,93.173,58.812c41.309,22.47,84.007,41.385,126.907,56.221    c43.896,15.181,88.123,26.108,131.87,32.602c-1.359,41.978-8.194,127.098-38.842,223.443    c-25.317,79.594-61.694,150.672-108.12,211.258C605.537,738.494,536.632,795.52,455.143,836.93z"
   id="path2"
   style="fill:#ffffff;stroke:#000000;stroke-opacity:1" />
		<polygon
   points="635.013,305.016 588.969,351.06 417.368,522.662 330.399,435.693 318.573,423.867 295.239,447.201     295.239,447.202 271.904,470.537 417.368,616 681.682,351.686   "
   id="polygon4"
   style="fill:#ffffff" />
	<path
   style="fill:#aa0000;fill-opacity:1;stroke:#100000;stroke-width:0;stroke-linecap:square;stroke-linejoin:miter;stroke-miterlimit:4;stroke-dasharray:none;stroke-opacity:1"
   d="M 433.97892,824.49841 C 297.17439,748.4211 198.50447,624.48159 144.7895,461.24698 124.34918,399.13083 109.3784,320.83672 105.48016,255.6673 l -1.34037,-22.40795 19.88299,-3.36397 c 98.54835,-16.67322 208.47033,-61.97362 303.83213,-125.21349 14.6928,-9.743646 27.27675,-17.499645 27.96432,-17.235558 0.68758,0.264087 14.26802,9.044315 30.17875,19.511618 93.97036,61.8209 203.17558,106.4794 300.85782,123.0331 l 19.28601,3.2683 -1.36883,23.28212 c -3.66774,62.38446 -18.52858,140.76356 -38.22837,201.62437 -17.48578,54.02088 -46.03053,116.23668 -73.23465,159.6215 -37.36078,59.58257 -86.83522,114.3587 -142.70474,157.99701 -17.31225,13.52216 -59.31627,40.85246 -79.1722,51.51408 l -16.49351,8.85621 z"
   id="path852"
   inkscape:connector-curvature="0"
   sodipodi:nodetypes="ssscsscsscssssccs" /></g>
<path
   inkscape:connector-curvature="0"
   style="fill:#ffffff;fill-opacity:1;stroke-width:27.71558189"
   d="m 621.74236,350.25391 -61.75027,-61.72262 c 0,0 -98.44574,104.84801 -104.84807,104.84801 -6.43,0 -104.90345,-104.84801 -104.90345,-104.84801 l -61.72262,61.75033 c 0,0 104.84802,96.25618 104.84802,104.95889 0,8.61956 -104.84802,104.87573 -104.84802,104.87573 l 61.72262,61.63946 c 0,0 97.6697,-104.8203 104.90345,-104.8203 7.2338,0 104.84807,104.8203 104.84807,104.8203 l 61.77799,-61.63946 c 0,0 -104.90345,-97.86367 -104.90345,-104.87573 -0.028,-7.23375 104.87573,-104.9866 104.87573,-104.9866 z"
   id="path4" /></g>
<g
   id="g10">
</g>
<g
   id="g12">
</g>
<g
   id="g14">
</g>
<g
   id="g16">
</g>
<g
   id="g18">
</g>
<g
   id="g20">
</g>
<g
   id="g22">
</g>
<g
   id="g24">
</g>
<g
   id="g26">
</g>
<g
   id="g28">
</g>
<g
   id="g30">
</g>
<g
   id="g32">
</g>
<g
   id="g34">
</g>
<g
   id="g36">
</g>
<g
   id="g38">
</g>
</svg>